Coordinates
version=1
nRows=17
nColumns=24
inDegrees=yes

Units are S.I. units (second, meters, Newtons, ...)
Angles are in degrees.

endheader
time	pelvis_tilt	pelvis_list	pelvis_rotation	pelvis_tx	pelvis_ty	pelvis_tz	hip_flexion_r	hip_adduction_r	hip_rotation_r	knee_angle_r	ankle_angle_r	subtalar_angle_r	mtp_angle_r	hip_flexion_l	hip_adduction_l	hip_rotation_l	knee_angle_l	ankle_angle_l	subtalar_angle_l	mtp_angle_l	lumbar_extension	lumbar_bending	lumbar_rotation
      1.32533333	     -8.04058937	      1.80275644	     -5.72908246	      0.49361378	      1.07104927	      0.26761321	     27.29655177	     -2.87025659	     -2.48541710	    -64.32023884	      3.82453277	     -2.96425744	      5.63769986	     15.51480511	      2.59538479	      0.39107027	    -14.99866831	      9.88407701	      1.18063653	     -2.76445751	     -3.99371805	     -3.48520465	     -0.14476374
      1.32950000	     -8.01144257	      1.70734162	     -5.62093511	      0.49870925	      1.07176392	      0.26731829	     27.65493439	     -2.78215387	     -2.69694337	    -63.60833208	      4.12612885	     -2.80563612	      5.67051165	     14.96795114	      2.55868597	      0.48706720	    -14.55344919	      9.91023053	      1.21960864	     -2.74465814	     -3.98770588	     -3.33950447	     -0.29090117
      1.33366667	     -8.00369099	      1.64192056	     -5.51994868	      0.50379037	      1.07234904	      0.26703544	     28.04244074	     -2.72234700	     -2.88738656	    -62.89175553	      4.42931302	     -2.65276392	      5.70700535	     14.44274918	      2.55117368	      0.59965085	    -14.09758536	      9.93293967	      1.23122657	     -2.71983457	     -3.96356283	     -3.21388894	     -0.47843375
      1.33783333	     -7.97392128	      1.55696736	     -5.42101304	      0.50887021	      1.07295632	      0.26676962	     28.38642049	     -2.64229884	     -3.08026049	    -62.12784987	      4.70301537	     -2.54098380	      5.73629476	     13.89724672	      2.51987783	      0.69928579	    -13.65237912	      9.96552783	      1.25934413	     -2.69788223	     -3.96470447	     -3.07433682	     -0.62585980
      1.34200000	     -7.97199238	      1.49034412	     -5.32720749	      0.51393783	      1.07343554	      0.26652558	     28.75997897	     -2.57673140	     -3.25832442	    -61.35093297	      4.97529639	     -2.43352800	      5.76169475	     13.38846359	      2.50202221	      0.79116619	    -13.21592326	      9.99849909	      1.28112714	     -2.67716749	     -3.92855267	     -2.95396468	     -0.77221394
      1.34616667	     -7.96269743	      1.41621321	     -5.23573731	      0.51900787	      1.07389309	      0.26629664	     29.10939020	     -2.50083071	     -3.43078503	    -60.53557330	      5.23379045	     -2.36872939	      5.77774811	     12.87868849	      2.47186155	      0.86033115	    -12.79567593	     10.02659243	      1.32543608	     -2.66316472	     -3.89363777	     -2.83947237	     -0.87866959
      1.35033333	     -7.94791920	      1.36358517	     -5.15323976	      0.52404547	      1.07428193	      0.26608466	     29.45774126	     -2.44595822	     -3.58373464	    -59.71388482	      5.47089006	     -2.30053994	      5.79679618	     12.35469663	      2.46640501	      0.97140400	    -12.35144773	     10.07338476	      1.31434389	     -2.64124690	     -3.88564953	     -2.72539575	     -1.05966744
      1.35450000	     -7.96170726	      1.29556245	     -5.07270348	      0.52909844	      1.07458643	      0.26590790	     29.81629870	     -2.36536079	     -3.73072806	    -58.85089148	      5.70635516	     -2.28809740	      5.80564050	     11.87987282	      2.43179447	      1.02231116	    -11.95040629	     10.10754157	      1.36959963	     -2.63003211	     -3.82536385	     -2.61620079	     -1.13389431
      1.35866667	     -7.96856794	      1.25065373	     -4.99637505	      0.53412038	      1.07481843	      0.26573037	     30.17046749	     -2.31175710	     -3.86367925	    -57.98169340	      5.91097447	     -2.26458364	      5.81600115	     11.39110926	      2.42699472	      1.12968772	    -11.53024555	     10.17189080	      1.35433357	     -2.60848084	     -3.78643299	     -2.51343511	     -1.31209783
      1.36283333	     -7.99651311	      1.20089424	     -4.92791946	      0.53914271	      1.07498226	      0.26559685	     30.53255711	     -2.24102385	     -3.97948082	    -57.07816984	      6.12255913	     -2.28621643	      5.82064259	     10.93803072	      2.40523839	      1.18121091	    -11.13702153	     10.21431716	      1.39218932	     -2.59454475	     -3.71276670	     -2.42323920	     -1.39517325
      1.36700000	     -7.96902826	      1.16144842	     -4.86389649	      0.54412870	      1.07517856	      0.26547036	     30.83155716	     -2.18536132	     -4.08127331	    -56.15888033	      6.29970433	     -2.32085451	      5.82211260	     10.42064515	      2.40048764	      1.26306549	    -10.73048453	     10.28339533	      1.40066913	     -2.57439499	     -3.71949003	     -2.33903476	     -1.52950103
      1.37116667	     -8.02013948	      1.13064119	     -4.80170773	      0.54912654	      1.07517528	      0.26537831	     31.20657958	     -2.12496962	     -4.16674321	    -55.22025760	      6.47172360	     -2.38413705	      5.81971342	      9.99848251	      2.39346637	      1.33633944	    -10.34729551	     10.34334676	      1.40717092	     -2.55236094	     -3.61969587	     -2.26408358	     -1.64135592
      1.37533333	     -8.03002656	      1.10597987	     -4.74854855	      0.55409633	      1.07520224	      0.26531580	     31.52927235	     -2.06859327	     -4.23406711	    -54.25874869	      6.63367242	     -2.46454761	      5.81436039	      9.53543466	      2.39184767	      1.38689196	     -9.96803807	     10.41156738	      1.43785687	     -2.53420772	     -3.57648696	     -2.20367765	     -1.72655908
      1.37950000	     -8.06658703	      1.08612584	     -4.70053351	      0.55905995	      1.07510991	      0.26527839	     31.87272913	     -2.00959268	     -4.28575662	    -53.28045127	      6.80426950	     -2.55275043	      5.80923188	      9.11121448	      2.38852827	      1.41657868	     -9.61092572	     10.48169062	      1.48729976	     -2.52213423	     -3.50140629	     -2.15101629	     -1.78685504
      1.38366667	     -8.08514019	      1.06635850	     -4.65316099	      0.56400622	      1.07501250	      0.26525513	     32.18486302	     -1.94863430	     -4.32593662	    -52.27533413	      6.93583441	     -2.67766449	      5.80092262	      8.66683908	      2.38612456	      1.46029080	     -9.25027277	     10.56406126	      1.53044598	     -2.50938185	     -3.45065899	     -2.09656167	     -1.86283695
      1.38783333	     -8.10234361	      1.06163401	     -4.61241851	      0.56893536	      1.07485986	      0.26526431	     32.49075355	     -1.89658964	     -4.34506631	    -51.25551504	      7.05842261	     -2.81701572	      5.79056311	      8.22432354	      2.39660515	      1.49941977	     -8.89412751	     10.64801286	      1.56756830	     -2.49656039	     -3.40359466	     -2.06080136	     -1.94074371
      1.39200000	     -8.13604405	      1.06521180	     -4.57445680	      0.57385947	      1.07462284	      0.26528823	     32.80664283	     -1.84814941	     -4.34789425	    -50.21930517	      7.15860046	     -2.97677138	      5.77723828	      7.80099057	      2.41302335	      1.54298087	     -8.54084637	     10.73611597	      1.59747190	     -2.48246395	     -3.33678318	     -2.03720685	     -2.01927332
